<svg width="1940" height="151" viewBox="0 0 1940 151" fill="none" xmlns="http://www.w3.org/2000/svg">
<rect y="93" width="1940" height="57" fill="#F2CD00"/>
<path d="M0 115.469C150.5 57.9694 489 -41.8306 639 18.9694C826.5 94.9694 1058.5 115.469 1123 115.469C1187.5 115.469 1433.5 48.4694 1521.5 62.9694C1609.5 77.4694 1776.5 115.469 1932 115.469H1123H0Z" fill="#F2CD00"/>
<path d="M8 150.469C158.5 92.9694 497 -6.83063 647 53.9694C834.5 129.969 1066.5 150.469 1131 150.469C1195.5 150.469 1441.5 83.4694 1529.5 97.9694C1617.5 112.469 1784.5 150.469 1940 150.469H1131H8Z" fill="#F4F4F4"/>
</svg>
